<svg width="12" height="12" viewBox="0 0 12 12" fill="none" xmlns="http://www.w3.org/2000/svg">
<path d="M10.898 3.77297L4.89797 9.77297C4.84571 9.82541 4.78361 9.86702 4.71524 9.89541C4.64687 9.9238 4.57356 9.93842 4.49953 9.93842C4.4255 9.93842 4.35219 9.9238 4.28382 9.89541C4.21545 9.86702 4.15335 9.82541 4.10109 9.77297L1.47609 7.14797C1.42377 7.09565 1.38226 7.03353 1.35395 6.96517C1.32563 6.8968 1.31105 6.82353 1.31105 6.74954C1.31105 6.67554 1.32563 6.60227 1.35395 6.5339C1.38226 6.46554 1.42377 6.40342 1.47609 6.3511C1.52842 6.29877 1.59053 6.25727 1.6589 6.22895C1.72726 6.20063 1.80053 6.18606 1.87453 6.18606C1.94853 6.18606 2.0218 6.20063 2.09016 6.22895C2.15853 6.25727 2.22064 6.29877 2.27297 6.3511L4.5 8.57813L10.102 2.97703C10.2077 2.87136 10.351 2.812 10.5005 2.812C10.6499 2.812 10.7932 2.87136 10.8989 2.97703C11.0046 3.08271 11.0639 3.22603 11.0639 3.37547C11.0639 3.52492 11.0046 3.66824 10.8989 3.77391L10.898 3.77297Z" fill="white"/>
</svg>
