<svg width="12" height="12" viewBox="0 0 12 12" fill="none" xmlns="http://www.w3.org/2000/svg">
<path d="M10.3903 6.26531L7.01531 9.64031C6.94495 9.71067 6.84951 9.7502 6.75 9.7502C6.65049 9.7502 6.55505 9.71067 6.48469 9.64031C6.41432 9.56994 6.37479 9.47451 6.37479 9.37499C6.37479 9.27548 6.41432 9.18005 6.48469 9.10968L9.21984 6.37499H1.875C1.77554 6.37499 1.68016 6.33549 1.60984 6.26516C1.53951 6.19483 1.5 6.09945 1.5 5.99999C1.5 5.90054 1.53951 5.80516 1.60984 5.73483C1.68016 5.6645 1.77554 5.62499 1.875 5.62499H9.21984L6.48469 2.89031C6.41432 2.81994 6.37479 2.72451 6.37479 2.62499C6.37479 2.52548 6.41432 2.43005 6.48469 2.35968C6.55505 2.28932 6.65049 2.24979 6.75 2.24979C6.84951 2.24979 6.94495 2.28932 7.01531 2.35968L10.3903 5.73468C10.4252 5.76951 10.4528 5.81087 10.4717 5.85639C10.4906 5.90192 10.5003 5.95071 10.5003 5.99999C10.5003 6.04928 10.4906 6.09807 10.4717 6.1436C10.4528 6.18912 10.4252 6.23048 10.3903 6.26531Z" fill="#ADAEA3"/>
</svg>
