<svg width="8" height="8" viewBox="0 0 8 8" fill="none" xmlns="http://www.w3.org/2000/svg">
<path d="M5.67688 4.17689L3.17688 6.67689C3.15365 6.70012 3.12607 6.71854 3.09573 6.73112C3.06538 6.74369 3.03285 6.75016 3 6.75016C2.96715 6.75016 2.93463 6.74369 2.90428 6.73112C2.87393 6.71854 2.84635 6.70012 2.82313 6.67689C2.7999 6.65366 2.78147 6.62609 2.7689 6.59574C2.75633 6.56539 2.74986 6.53287 2.74986 6.50002C2.74986 6.46717 2.75633 6.43464 2.7689 6.40429C2.78147 6.37394 2.7999 6.34637 2.82313 6.32314L5.14656 4.00002L2.82313 1.67689C2.77622 1.62998 2.74986 1.56636 2.74986 1.50002C2.74986 1.43368 2.77622 1.37005 2.82313 1.32314C2.87004 1.27623 2.93366 1.24988 3 1.24988C3.06634 1.24988 3.12997 1.27623 3.17688 1.32314L5.67688 3.82314C5.70012 3.84636 5.71856 3.87393 5.73114 3.90428C5.74372 3.93463 5.7502 3.96716 5.7502 4.00002C5.7502 4.03287 5.74372 4.0654 5.73114 4.09575C5.71856 4.1261 5.70012 4.15367 5.67688 4.17689Z" fill="white"/>
</svg>
