<svg width="15" height="14" viewBox="0 0 15 14" fill="none" xmlns="http://www.w3.org/2000/svg">
<path d="M7.60975 11.6667C7.765 11.6667 7.91389 11.7281 8.02367 11.8375C8.13345 11.9469 8.19512 12.0953 8.19512 12.25C8.19512 12.4047 8.13345 12.5531 8.02367 12.6625C7.91389 12.7719 7.765 12.8334 7.60975 12.8334H6.43902C6.28377 12.8334 6.13488 12.7719 6.02511 12.6625C5.91533 12.5531 5.85366 12.4047 5.85366 12.25C5.85366 12.0953 5.91533 11.9469 6.02511 11.8375C6.13488 11.7281 6.28377 11.6667 6.43902 11.6667H7.60975ZM7.02439 1.16669C9.60585 1.16669 11.7073 3.23344 11.7073 5.79427C11.7073 7.54777 10.8164 8.82527 10.08 9.58244L9.91375 9.74752L9.7557 9.89452L9.60819 10.0229L9.41502 10.1804L9.22302 10.3227C9.10829 10.4032 9.024 10.5146 8.95024 10.6348L8.86536 10.7812L8.78283 10.9282C8.64234 11.1685 8.47961 11.375 8.13248 11.375H5.91629C5.56917 11.375 5.40644 11.1685 5.26653 10.9282L5.14185 10.7077C5.05697 10.5601 4.96332 10.4195 4.82575 10.3227L4.68995 10.2229L4.57346 10.1325L4.44058 10.0229L4.29307 9.89452L4.13502 9.74752L3.96819 9.58244C3.23239 8.82527 2.34146 7.54777 2.34146 5.79427C2.34146 3.23344 4.44292 1.16669 7.02439 1.16669ZM7.02439 2.33335C5.07922 2.33335 3.51219 3.88794 3.51219 5.79427C3.51219 7.32494 4.40956 8.41577 5.03005 8.98569L5.17346 9.11285L5.30224 9.21902L5.46029 9.34035L5.50244 9.37069C5.68683 9.50019 5.8238 9.68044 5.94849 9.86885L6.16683 10.2084H7.88195L8.10029 9.86885C8.22497 9.68044 8.36195 9.50019 8.54634 9.37069L8.68858 9.26452L8.80917 9.16827L8.94556 9.0516C9.56605 8.50269 10.5366 7.38619 10.5366 5.79427C10.5366 3.88794 8.96956 2.33335 7.02439 2.33335ZM7.1959 3.67094C7.30124 3.56632 7.44259 3.50558 7.59125 3.50105C7.7399 3.49653 7.88471 3.54856 7.99626 3.64658C8.10781 3.7446 8.17774 3.88126 8.19184 4.0288C8.20594 4.17634 8.16317 4.32369 8.07219 4.44094L8.02361 4.49577L7.26673 5.25002L8.01951 6.00019C8.23258 6.21252 8.24897 6.54677 8.06868 6.77777L8.01951 6.83319L6.85288 7.99577C6.74753 8.10039 6.60618 8.16113 6.45753 8.16565C6.30888 8.17018 6.16407 8.11815 6.05252 8.02013C5.94097 7.92211 5.87104 7.78545 5.85693 7.63791C5.84283 7.49037 5.88561 7.34302 5.97658 7.22577L6.02517 7.17094L6.78205 6.41669L6.02927 5.66652C5.92749 5.56509 5.86634 5.43014 5.85729 5.28698C5.84823 5.14383 5.8919 5.0023 5.98009 4.88894L6.02927 4.83352L7.1959 3.67094Z" fill="white"/>
</svg>
